<?xml version="1.0" encoding="UTF-8"?>
<svg version="1.1" xmlns="http://www.w3.org/2000/svg" width="2442" height="1949">
<path d="M0 0 C24.30402837 -0.44439813 48.60744571 -0.77915537 72.91472244 -0.98443127 C84.20201902 -1.08229239 95.48678756 -1.21562481 106.77246094 -1.43334961 C116.61257215 -1.62309546 126.4508527 -1.74538714 136.29274249 -1.7876814 C141.50227007 -1.81239908 146.7065623 -1.87018907 151.91440582 -2.00887108 C183.58442397 -2.82020058 183.58442397 -2.82020058 190.87910652 1.83886719 C195.15684846 6.15867596 197.40222289 10.91608116 199.19851112 16.66397285 C200.42530466 20.23959702 202.35933389 23.09054864 204.43359375 26.2421875 C205.76975952 28.45220048 207.10439505 30.66313935 208.4375 32.875 C209.90359198 35.30030101 211.37142141 37.72454684 212.83984375 40.1484375 C213.19762909 40.73917053 213.55541443 41.32990356 213.92404175 41.9385376 C217.08203498 47.14696675 220.28344801 52.32760146 223.5 57.5 C228.49140314 65.53002376 233.41343997 73.60092067 238.3125 81.6875 C244.56318093 92.00504987 250.85930168 102.29295886 257.19067383 112.5612793 C262.0625197 120.46607329 266.89747586 128.39260519 271.71826172 136.32861328 C276.05663845 143.46460051 280.42942911 150.57889381 284.8125 157.6875 C290.77245385 167.35509956 296.68353833 177.05103684 302.56890869 186.76409912 C308.40200089 196.38905118 314.28455736 205.98258134 320.19140625 215.5625 C325.06303876 223.46686817 329.89772224 231.39301078 334.71826172 239.32861328 C339.05663832 246.46460029 343.42939708 253.5789137 347.8125 260.6875 C353.84262929 270.46804874 359.8204873 280.27881925 365.77407837 290.10604858 C370.31173647 297.59431851 374.87781452 305.06355268 379.5 312.5 C384.49120511 320.53014809 389.41343872 328.60091861 394.3125 336.6875 C400.56318093 347.00504987 406.85930168 357.29295886 413.19067383 367.5612793 C418.0625197 375.46607329 422.89747586 383.39260519 427.71826172 391.32861328 C432.05663845 398.46460051 436.42942911 405.57889381 440.8125 412.6875 C446.77245385 422.35509956 452.68353833 432.05103684 458.56890869 441.76409912 C464.40200089 451.38905118 470.28455736 460.98258134 476.19140625 470.5625 C481.06303876 478.46686817 485.89772224 486.39301078 490.71826172 494.32861328 C495.05663832 501.46460029 499.42939708 508.5789137 503.8125 515.6875 C509.84262929 525.46804874 515.8204873 535.27881925 521.77407837 545.10604858 C526.31173647 552.59431851 530.87781452 560.06355268 535.5 567.5 C540.49120511 575.53014809 545.41343872 583.60091861 550.3125 591.6875 C556.56318093 602.00504987 562.85930168 612.29295886 569.19067383 622.5612793 C574.0625197 630.46607329 578.89747586 638.39260519 583.71826172 646.32861328 C588.05663845 653.46460051 592.42942911 660.57889381 596.8125 667.6875 C602.77245385 677.35509956 608.68353833 687.05103684 614.56890869 696.76409912 C620.40200089 706.38905118 626.28455736 715.98258134 632.19140625 725.5625 C637.06303876 733.46686817 641.89772224 741.39301078 646.71826172 749.32861328 C651.05663832 756.46460029 655.42939708 763.5789137 659.8125 770.6875 C665.84262929 780.46804874 671.8204873 790.27881925 677.77407837 800.10604858 C682.31173647 807.59431851 686.87781452 815.06355268 691.5 822.5 C696.1226182 829.93714351 700.68901716 837.40713015 705.22702026 844.89614868 C746.32025286 914.30654178 746.32025286 914.30654178 816.01416016 951.51855469 C837.29496316 956.70638553 860.66354077 957.18484635 882 952 C883.04341553 951.75056641 883.04341553 951.75056641 884.10791016 951.49609375 C903.45481012 946.7070376 922.88617631 938.3979846 937 924 C927.98732168 909.11695609 918.94436926 894.25415223 909.8125 879.44384766 C905.51841732 872.47655029 901.24907989 865.49482504 897 858.5 C892.02821577 850.31580919 887.02412054 842.15216493 882 834 C876.39728795 824.90900938 870.82663687 815.79940037 865.2824707 806.67260742 C860.94386533 799.53620408 856.57085198 792.42149023 852.1875 785.3125 C846.15737071 775.53195126 840.1795127 765.72118075 834.22592163 755.89395142 C829.68826353 748.40568149 825.12218548 740.93644732 820.5 733.5 C815.50879489 725.46985191 810.58656128 717.39908139 805.6875 709.3125 C799.43681907 698.99495013 793.14069832 688.70704114 786.80932617 678.4387207 C781.9374803 670.53392671 777.10252414 662.60739481 772.28173828 654.67138672 C767.94336168 647.53539971 763.57060292 640.4210863 759.1875 633.3125 C753.15737071 623.53195126 747.1795127 613.72118075 741.22592163 603.89395142 C736.68826353 596.40568149 732.12218548 588.93644732 727.5 581.5 C722.50879489 573.46985191 717.58656128 565.39908139 712.6875 557.3125 C706.43681907 546.99495013 700.14069832 536.70704114 693.80932617 526.4387207 C689.51632017 519.47312102 685.24803629 512.49310707 681 505.5 C676.02821577 497.31580919 671.02412054 489.15216493 666 481 C660.39728795 471.90900938 654.82663687 462.79940037 649.2824707 453.67260742 C644.94386533 446.53620408 640.57085198 439.42149023 636.1875 432.3125 C630.15737071 422.53195126 624.1795127 412.72118075 618.22592163 402.89395142 C613.68826353 395.40568149 609.12218548 387.93644732 604.5 380.5 C599.50879489 372.46985191 594.58656128 364.39908139 589.6875 356.3125 C583.43681907 345.99495013 577.14069832 335.70704114 570.80932617 325.4387207 C566.51632017 318.47312102 562.24803629 311.49310707 558 304.5 C553.02821577 296.31580919 548.02412054 288.15216493 543 280 C537.39728795 270.90900938 531.82663687 261.79940037 526.2824707 252.67260742 C521.94386533 245.53620408 517.57085198 238.42149023 513.1875 231.3125 C507.15737071 221.53195126 501.1795127 211.72118075 495.22592163 201.89395142 C490.68826353 194.40568149 486.12218548 186.93644732 481.5 179.5 C476.50879489 171.46985191 471.58656128 163.39908139 466.6875 155.3125 C460.43681907 144.99495013 454.14069832 134.70704114 447.80932617 124.4387207 C442.9374803 116.53392671 438.10252414 108.60739481 433.28173828 100.67138672 C428.94336168 93.53539971 424.57060292 86.4210863 420.1875 79.3125 C414.52423596 70.12698716 408.90419174 60.91667238 403.3125 51.6875 C395.29734247 38.46070007 387.21008406 25.27970996 378.9765625 12.1875 C378.50468506 11.43629883 378.03280762 10.68509766 377.54663086 9.91113281 C376.66423536 8.50804947 375.77975192 7.10627627 374.89282227 5.70605469 C372 1.11010686 372 1.11010686 372 0 C396.41695099 -0.4912884 420.83315822 -0.8612233 445.2540617 -1.08805561 C456.59431673 -1.19619637 467.93149563 -1.34351518 479.26977539 -1.58422852 C489.15641176 -1.79402259 499.04082065 -1.92912797 508.92962104 -1.97585839 C514.16371399 -2.00316787 519.39143729 -2.06695344 524.62347984 -2.22033119 C556.44977504 -3.11804849 556.44977504 -3.11804849 563.99537277 2.05258369 C568.55840791 6.90056819 571.07617568 12.2421323 573.13064003 18.51834106 C574.34691035 21.99028388 576.12172468 24.70898852 578.171875 27.75390625 C585.34844097 39.39727933 592.48055337 51.06620265 599.56863403 62.7635498 C605.40180647 72.38869256 611.28444983 81.98240694 617.19140625 91.5625 C622.06303876 99.46686817 626.89772224 107.39301078 631.71826172 115.32861328 C636.05663845 122.46460051 640.42942911 129.57889381 644.8125 136.6875 C650.77245385 146.35509956 656.68353833 156.05103684 662.56890869 165.76409912 C668.40200089 175.38905118 674.28455736 184.98258134 680.19140625 194.5625 C684.48419468 201.52767648 688.75221007 208.50729849 693 215.5 C697.97178423 223.68419081 702.97587946 231.84783507 708 240 C713.60271205 249.09099062 719.17336313 258.20059963 724.7175293 267.32739258 C729.0561348 274.46379614 733.42918005 281.57848987 737.8125 288.6875 C743.77245385 298.35509956 749.68353833 308.05103684 755.56890869 317.76409912 C761.40200089 327.38905118 767.28455736 336.98258134 773.19140625 346.5625 C778.06303876 354.46686817 782.89772224 362.39301078 787.71826172 370.32861328 C792.05663832 377.46460029 796.42939708 384.5789137 800.8125 391.6875 C806.84262929 401.46804874 812.8204873 411.27881925 818.77407837 421.10604858 C823.31173647 428.59431851 827.87781452 436.06355268 832.5 443.5 C837.49120511 451.53014809 842.41343872 459.60091861 847.3125 467.6875 C853.56318093 478.00504987 859.85930168 488.29295886 866.19067383 498.5612793 C871.0625197 506.46607329 875.89747586 514.39260519 880.71826172 522.32861328 C885.05663845 529.46460051 889.42942911 536.57889381 893.8125 543.6875 C899.77245385 553.35509956 905.68353833 563.05103684 911.56890869 572.76409912 C917.40200089 582.38905118 923.28455736 591.98258134 929.19140625 601.5625 C933.48419468 608.52767648 937.75221007 615.50729849 942 622.5 C946.97178423 630.68419081 951.97587946 638.84783507 957 647 C962.60271205 656.09099062 968.17336313 665.20059963 973.7175293 674.32739258 C978.0561348 681.46379614 982.42918005 688.57848987 986.8125 695.6875 C992.41161095 704.76977881 997.97048015 713.87528848 1003.5 723 C1019.93927747 750.19442739 1019.93927747 750.19442739 1037 777 C1037.57105469 776.01644531 1038.14210938 775.03289063 1038.73046875 774.01953125 C1043.91914056 765.12108443 1049.24535292 756.32050145 1054.68823242 747.57543945 C1059.3456993 740.08246638 1063.93019095 732.54656352 1068.5 725 C1073.46117619 716.80898087 1078.44406724 708.63304092 1083.5 700.5 C1088.85708373 691.88135059 1094.13301505 683.21462018 1099.38928223 674.53427124 C1103.39159671 667.92527869 1107.40610012 661.32452747 1111.46484375 654.75 C1111.82713577 654.1629277 1112.1894278 653.57585541 1112.56269836 652.97099304 C1114.28399186 650.18296195 1116.00801269 647.39669128 1117.7355957 644.61254883 C1121.3157777 638.82221669 1124.76505619 632.99067156 1128 627 C1118.98732168 612.11695609 1109.94436926 597.25415223 1100.8125 582.44384766 C1095.93957446 574.53735777 1091.10356775 566.60911281 1086.28173828 558.67138672 C1081.94336155 551.53539949 1077.57057089 544.42110619 1073.1875 537.3125 C1067.22754615 527.64490044 1061.31646167 517.94896316 1055.43109131 508.23590088 C1049.59799911 498.61094882 1043.71544264 489.01741866 1037.80859375 479.4375 C1032.93696124 471.53313183 1028.10227776 463.60698922 1023.28173828 455.67138672 C1018.94336168 448.53539971 1014.57060292 441.4210863 1010.1875 434.3125 C1004.15737071 424.53195126 998.1795127 414.72118075 992.22592163 404.89395142 C987.68826353 397.40568149 983.12218548 389.93644732 978.5 382.5 C973.50879489 374.46985191 968.58656128 366.39908139 963.6875 358.3125 C957.43681907 347.99495013 951.14069832 337.70704114 944.80932617 327.4387207 C939.9374803 319.53392671 935.10252414 311.60739481 930.28173828 303.67138672 C925.94336155 296.53539949 921.57057089 289.42110619 917.1875 282.3125 C911.22754615 272.64490044 905.31646167 262.94896316 899.43109131 253.23590088 C893.59799911 243.61094882 887.71544264 234.01741866 881.80859375 224.4375 C876.93696124 216.53313183 872.10227776 208.60698922 867.28173828 200.67138672 C862.94336155 193.53539949 858.57057089 186.42110619 854.1875 179.3125 C848.22754615 169.64490044 842.31646167 159.94896316 836.43109131 150.23590088 C830.59799911 140.61094882 824.71544264 131.01741866 818.80859375 121.4375 C813.93696124 113.53313183 809.10227776 105.60698922 804.28173828 97.67138672 C799.94336168 90.53539971 795.57060292 83.4210863 791.1875 76.3125 C785.52423732 67.12698937 779.90400194 57.91678585 774.3125 48.6875 C766.84632004 36.3645391 759.28573136 24.10206825 751.67382812 11.86865234 C750.50984283 9.99692405 749.34840296 8.12364093 748.1875 6.25 C747.56230469 5.24453125 746.93710937 4.2390625 746.29296875 3.203125 C745 1 745 1 745 0 C769.34702604 -0.65568821 793.69272026 -1.14859058 818.04681301 -1.45074081 C829.35689249 -1.5948065 840.66147142 -1.79095235 851.96801758 -2.11230469 C861.82980529 -2.39245942 871.68761081 -2.57226045 881.55326706 -2.63447785 C886.77405114 -2.67083404 891.98345151 -2.75537661 897.20055962 -2.96044159 C929.79421195 -4.19221228 929.79421195 -4.19221228 937.34538651 2.67240906 C943.1048523 8.92726902 946.37684718 16.54244351 949.45448494 24.37137604 C951.99216178 30.32943831 955.48518151 35.5735756 959 41 C960.32375414 43.13639088 961.64332205 45.27538639 962.95703125 47.41796875 C963.94630615 49.02551025 963.94630615 49.02551025 964.95556641 50.66552734 C968.55420181 56.53490426 972.12019516 62.42404747 975.6875 68.3125 C980.5865348 76.39909717 985.5087951 84.46985225 990.5 92.5 C995.49120511 100.53014809 1000.41343872 108.60091861 1005.3125 116.6875 C1011.56318093 127.00504987 1017.85930168 137.29295886 1024.19067383 147.5612793 C1028.48367983 154.52687898 1032.75196371 161.50689293 1037 168.5 C1041.97178423 176.68419081 1046.97587946 184.84783507 1052 193 C1057.60271205 202.09099062 1063.17336313 211.20059963 1068.7175293 220.32739258 C1073.05613467 227.46379592 1077.42914802 234.57850977 1081.8125 241.6875 C1087.84262929 251.46804874 1093.8204873 261.27881925 1099.77407837 271.10604858 C1104.31173647 278.59431851 1108.87781452 286.06355268 1113.5 293.5 C1118.49120511 301.53014809 1123.41343872 309.60091861 1128.3125 317.6875 C1134.56318093 328.00504987 1140.85930168 338.29295886 1147.19067383 348.5612793 C1152.0625197 356.46607329 1156.89747586 364.39260519 1161.71826172 372.32861328 C1166.05663832 379.46460029 1170.42939708 386.5789137 1174.8125 393.6875 C1180.47576404 402.87301284 1186.09580826 412.08332762 1191.6875 421.3125 C1201.98063183 438.29846626 1212.45438474 455.16986459 1223 472 C1229.95594644 461.08196685 1236.79815786 450.10292498 1243.51098633 439.03369141 C1247.91451934 431.77441072 1252.35521187 424.53888315 1256.8125 417.3125 C1262.84279656 407.53205548 1268.82048819 397.72117929 1274.77407837 387.89395142 C1279.82043798 379.56619685 1284.91387045 371.26957884 1290.05419922 362.99951172 C1294.52186694 355.79968804 1298.92204823 348.55955072 1303.3125 341.3125 C1309.56318093 330.99495013 1315.85930168 320.70704114 1322.19067383 310.4387207 C1326.48367983 303.47312102 1330.75196371 296.49310707 1335 289.5 C1340.6444077 280.20858518 1346.33524682 270.94644816 1352.0390625 261.69140625 C1356.95996884 253.70205831 1361.84598937 245.69212467 1366.7175293 237.67260742 C1371.05613467 230.53620408 1375.42914802 223.42149023 1379.8125 216.3125 C1385.84262929 206.53195126 1391.8204873 196.72118075 1397.77407837 186.89395142 C1402.82043798 178.56619685 1407.91387045 170.26957884 1413.05419922 161.99951172 C1417.52186694 154.79968804 1421.92204823 147.55955072 1426.3125 140.3125 C1432.56318093 129.99495013 1438.85930168 119.70704114 1445.19067383 109.4387207 C1449.48367983 102.47312102 1453.75196371 95.49310707 1458 88.5 C1463.6444077 79.20858518 1469.33524682 69.94644816 1475.0390625 60.69140625 C1479.94824104 52.72109901 1484.82339685 44.73072355 1489.68237305 36.72973633 C1492.90446484 31.42881607 1496.14104646 26.1371593 1499.39453125 20.85546875 C1499.76343475 20.25658844 1500.13233826 19.65770813 1500.51242065 19.04067993 C1502.31859293 16.10950248 1504.12627142 13.17926294 1505.93554688 10.25 C1506.58201172 9.20199219 1507.22847656 8.15398438 1507.89453125 7.07421875 C1508.47050049 6.14182373 1509.04646973 5.20942871 1509.63989258 4.2487793 C1510.99698342 2.07288517 1510.99698342 2.07288517 1512 0 C1574.37 0 1636.74 0 1701 0 C1694.24657374 12.38128148 1694.24657374 12.38128148 1691.15234375 17.4609375 C1690.13140625 19.14026367 1690.13140625 19.14026367 1689.08984375 20.85351562 C1688.37249483 22.02740425 1687.65504454 23.20123093 1686.9375 24.375 C1686.17954924 25.6190564 1685.42173891 26.86319836 1684.6640625 28.10742188 C1679.79618289 36.09380507 1674.88526846 44.05299865 1669.94824219 51.99682617 C1665.4794571 59.19768274 1661.07871107 66.43919594 1656.6875 73.6875 C1650.43681907 84.00504987 1644.14069832 94.29295886 1637.80932617 104.5612793 C1633.51632017 111.52687898 1629.24803629 118.50689293 1625 125.5 C1619.3555923 134.79141482 1613.66475318 144.05355184 1607.9609375 153.30859375 C1603.04003116 161.29794169 1598.15401063 169.30787533 1593.2824707 177.32739258 C1588.94386533 184.46379592 1584.57085198 191.57850977 1580.1875 198.6875 C1574.15737071 208.46804874 1568.1795127 218.27881925 1562.22592163 228.10604858 C1557.17956202 236.43380315 1552.08612955 244.73042116 1546.94580078 253.00048828 C1542.47813306 260.20031196 1538.07795177 267.44044928 1533.6875 274.6875 C1527.43681907 285.00504987 1521.14069832 295.29295886 1514.80932617 305.5612793 C1510.51632017 312.52687898 1506.24803629 319.50689293 1502 326.5 C1496.3555923 335.79141482 1490.66475318 345.05355184 1484.9609375 354.30859375 C1480.04003116 362.29794169 1475.15401063 370.30787533 1470.2824707 378.32739258 C1465.94386533 385.46379592 1461.57085198 392.57850977 1457.1875 399.6875 C1451.15737071 409.46804874 1445.1795127 419.27881925 1439.22592163 429.10604858 C1434.17956202 437.43380315 1429.08612955 445.73042116 1423.94580078 454.00048828 C1419.47813306 461.20031196 1415.07795177 468.44044928 1410.6875 475.6875 C1404.43681907 486.00504987 1398.14069832 496.29295886 1391.80932617 506.5612793 C1387.51632017 513.52687898 1383.24803629 520.50689293 1379 527.5 C1373.3555923 536.79141482 1367.66475318 546.05355184 1361.9609375 555.30859375 C1357.04003116 563.29794169 1352.15401063 571.30787533 1347.2824707 579.32739258 C1342.9438652 586.46379614 1338.57081995 593.57848987 1334.1875 600.6875 C1328.58839245 609.7697733 1323.02904657 618.87500524 1317.5 628 C1311.31138221 638.21353394 1305.0763487 648.39725221 1298.80859375 658.5625 C1294.51580532 665.52767648 1290.24778993 672.50729849 1286 679.5 C1280.3555923 688.79141482 1274.66475318 698.05355184 1268.9609375 707.30859375 C1264.04003116 715.29794169 1259.15401063 723.30787533 1254.2824707 731.32739258 C1249.94386533 738.46379592 1245.57085198 745.57850977 1241.1875 752.6875 C1235.15737071 762.46804874 1229.1795127 772.27881925 1223.22592163 782.10604858 C1218.17956202 790.43380315 1213.08612955 798.73042116 1207.94580078 807.00048828 C1203.47813306 814.20031196 1199.07795177 821.44044928 1194.6875 828.6875 C1188.43681907 839.00504987 1182.14069832 849.29295886 1175.80932617 859.5612793 C1171.51632017 866.52687898 1167.24803629 873.50689293 1163 880.5 C1157.3555923 889.79141482 1151.66475318 899.05355184 1145.9609375 908.30859375 C1141.61836129 915.35899258 1137.29928155 922.42312721 1133 929.5 C1125.96986819 941.06866068 1118.88678097 952.60428469 1111.77441406 964.12255859 C1110.21718509 966.64780635 1108.66607556 969.17666409 1107.1171875 971.70703125 C1096.486309 989.00476623 1084.5163416 1005.38719015 1070.609375 1020.203125 C1068.22522271 1022.75859362 1065.92257894 1025.36700808 1063.625 1028 C1049.27385199 1043.92596425 1031.96098484 1057.40165394 1014 1069 C1013.2795752 1069.46728516 1012.55915039 1069.93457031 1011.81689453 1070.41601562 C971.44033779 1096.31167666 925.6981005 1111.46868045 878 1116 C876.8553125 1116.11214844 875.710625 1116.22429687 874.53125 1116.33984375 C797.50805409 1122.67170558 720.7426875 1098.84275144 661 1050 C660.18595703 1049.34257812 660.18595703 1049.34257812 659.35546875 1048.671875 C644.25148309 1036.41565752 629.73598267 1022.53991075 618 1007 C616.99257336 1005.7187231 615.9832994 1004.43889756 614.97265625 1003.16015625 C603.27932991 988.26187714 593.52202501 972.32414541 583.7265625 956.140625 C579.91288809 949.84433124 576.05262922 943.57729538 572.1875 937.3125 C566.22725987 927.64507864 560.31646033 917.94896094 554.43109131 908.23590088 C548.59799911 898.61094882 542.71544264 889.01741866 536.80859375 879.4375 C531.93696124 871.53313183 527.10227776 863.60698922 522.28173828 855.67138672 C517.94336168 848.53539971 513.57060292 841.4210863 509.1875 834.3125 C503.15737071 824.53195126 497.1795127 814.72118075 491.22592163 804.89395142 C486.68826353 797.40568149 482.12218548 789.93644732 477.5 782.5 C472.50879489 774.46985191 467.58656128 766.39908139 462.6875 758.3125 C456.43681907 747.99495013 450.14069832 737.70704114 443.80932617 727.4387207 C438.9374803 719.53392671 434.10252414 711.60739481 429.28173828 703.67138672 C424.94336155 696.53539949 420.57057089 689.42110619 416.1875 682.3125 C410.22754615 672.64490044 404.31646167 662.94896316 398.43109131 653.23590088 C392.59799911 643.61094882 386.71544264 634.01741866 380.80859375 624.4375 C375.93696124 616.53313183 371.10227776 608.60698922 366.28173828 600.67138672 C361.94336168 593.53539971 357.57060292 586.4210863 353.1875 579.3125 C347.15737071 569.53195126 341.1795127 559.72118075 335.22592163 549.89395142 C330.68826353 542.40568149 326.12218548 534.93644732 321.5 527.5 C316.50879489 519.46985191 311.58656128 511.39908139 306.6875 503.3125 C300.43681907 492.99495013 294.14069832 482.70704114 287.80932617 472.4387207 C282.9374803 464.53392671 278.10252414 456.60739481 273.28173828 448.67138672 C268.94336155 441.53539949 264.57057089 434.42110619 260.1875 427.3125 C254.22754615 417.64490044 248.31646167 407.94896316 242.43109131 398.23590088 C236.59799911 388.61094882 230.71544264 379.01741866 224.80859375 369.4375 C219.93696124 361.53313183 215.10227776 353.60698922 210.28173828 345.67138672 C205.94336168 338.53539971 201.57060292 331.4210863 197.1875 324.3125 C191.15737071 314.53195126 185.1795127 304.72118075 179.22592163 294.89395142 C174.68826353 287.40568149 170.12218548 279.93644732 165.5 272.5 C160.50879489 264.46985191 155.58656128 256.39908139 150.6875 248.3125 C144.43681907 237.99495013 138.14069832 227.70704114 131.80932617 217.4387207 C126.9374803 209.53392671 122.10252414 201.60739481 117.28173828 193.67138672 C112.94336155 186.53539949 108.57057089 179.42110619 104.1875 172.3125 C98.22754615 162.64490044 92.31646167 152.94896316 86.43109131 143.23590088 C80.59799911 133.61094882 74.71544264 124.01741866 68.80859375 114.4375 C63.93696124 106.53313183 59.10227776 98.60698922 54.28173828 90.67138672 C49.94336168 83.53539971 45.57060292 76.4210863 41.1875 69.3125 C35.16211585 59.53964762 29.18865801 49.7367752 23.24002075 39.91711426 C17.39734799 30.27456756 11.49134917 20.67290337 5.5390625 11.09765625 C5.0946582 10.37980957 4.65025391 9.66196289 4.19238281 8.92236328 C3.18424945 7.29704754 2.16731751 5.67719427 1.1484375 4.05859375 C0 2 0 2 0 0 Z " fill="#3B23A8" transform="translate(0,0)"/>
<path d="M0 0 C1.81381541 0.00310475 3.62764464 0.00135735 5.44145203 -0.00486755 C10.35532073 -0.0080198 15.26622695 0.05657486 20.17940784 0.13344598 C25.31753626 0.20228272 30.45573516 0.20867746 35.59425354 0.22172546 C45.31989912 0.2558946 55.0441821 0.34613181 64.76922804 0.45656985 C75.84274733 0.57958723 86.91633225 0.64001802 97.99036491 0.69521964 C120.76589738 0.81015151 143.54022093 1.00359083 166.31469727 1.2487793 C166.34098925 2.69483865 166.35978835 4.14103563 166.37539673 5.58724976 C166.38666407 6.39257833 166.3979314 7.19790691 166.40954018 8.02763939 C166.28825456 10.86804494 165.52886027 12.55400738 163.96313477 14.9128418 C163.44904053 15.71230225 162.93494629 16.5117627 162.40527344 17.33544922 C161.8391333 18.17309814 161.27299316 19.01074707 160.68969727 19.8737793 C159.48393896 21.73619937 158.27955832 23.59951194 157.07641602 25.46362305 C156.4517041 26.41865723 155.82699219 27.37369141 155.18334961 28.35766602 C152.18933108 32.98990634 149.35050918 37.71358385 146.50219727 42.4362793 C141.47107418 50.72656645 136.40287492 58.99340206 131.31469727 67.2487793 C125.71194566 76.33974541 120.14133398 85.44937918 114.59716797 94.57617188 C110.25856246 101.71257543 105.88551721 108.82726917 101.50219727 115.9362793 C95.90308971 125.0185526 90.34374384 134.12378454 84.81469727 143.2487793 C78.62607948 153.46231324 72.39104596 163.6460315 66.12329102 173.8112793 C61.83050267 180.77645565 57.5624707 187.75606787 53.31469727 194.7487793 C48.40613496 202.82928553 43.46435176 210.88857791 38.50219727 218.9362793 C32.47206798 228.71682804 26.49420996 238.52759855 20.5406189 248.35482788 C15.49425928 256.68258244 10.40082682 264.97920046 5.26049805 273.24926758 C0.79283032 280.44909125 -3.60735097 287.68922858 -7.99780273 294.9362793 C-14.24848367 305.25382917 -20.54460441 315.54173816 -26.87597656 325.81005859 C-31.16898249 332.77565815 -35.43728294 339.75566231 -39.68530273 346.7487793 C-44.59386504 354.82928553 -49.53564824 362.88857791 -54.49780273 370.9362793 C-60.52793202 380.71682804 -66.50579004 390.52759855 -72.4593811 400.35482788 C-77.50574072 408.68258244 -82.59917318 416.97920046 -87.73950195 425.24926758 C-92.20716968 432.44909125 -96.60735097 439.68922858 -100.99780273 446.9362793 C-107.24848367 457.25382917 -113.54460441 467.54173816 -119.87597656 477.81005859 C-124.16898249 484.77565815 -128.43728294 491.75566231 -132.68530273 498.7487793 C-137.59386519 506.82928577 -142.53568452 514.88855541 -147.49780273 522.9362793 C-153.09691029 532.0185526 -158.65625616 541.12378454 -164.18530273 550.2487793 C-170.37392052 560.46231324 -176.60895404 570.6460315 -182.87670898 580.8112793 C-187.16949733 587.77645565 -191.4375293 594.75606787 -195.68530273 601.7487793 C-200.59386504 609.82928553 -205.53564824 617.88857791 -210.49780273 625.9362793 C-216.52793202 635.71682804 -222.50579004 645.52759855 -228.4593811 655.35482788 C-233.50574072 663.68258244 -238.59917318 671.97920046 -243.73950195 680.24926758 C-248.20716968 687.44909125 -252.60735097 694.68922858 -256.99780273 701.9362793 C-263.24848367 712.25382917 -269.54460441 722.54173816 -275.87597656 732.81005859 C-280.16898249 739.77565815 -284.43728294 746.75566231 -288.68530273 753.7487793 C-293.59386519 761.82928577 -298.53568452 769.88855541 -303.49780273 777.9362793 C-309.09691029 787.0185526 -314.65625616 796.12378454 -320.18530273 805.2487793 C-326.37392052 815.46231324 -332.60895404 825.6460315 -338.87670898 835.8112793 C-343.16949741 842.77645577 -347.43751281 849.75607778 -351.68530273 856.7487793 C-357.32971043 866.04019411 -363.02054956 875.30233114 -368.72436523 884.55737305 C-373.64527158 892.54672099 -378.53129211 900.55665462 -383.40283203 908.57617188 C-387.74143754 915.71257543 -392.11448279 922.82726917 -396.49780273 929.9362793 C-402.09691029 939.0185526 -407.65625616 948.12378454 -413.18530273 957.2487793 C-419.37392052 967.46231324 -425.60895404 977.6460315 -431.87670898 987.8112793 C-436.16949733 994.77645565 -440.4375293 1001.75606787 -444.68530273 1008.7487793 C-449.59386504 1016.82928553 -454.53564824 1024.88857791 -459.49780273 1032.9362793 C-465.52793202 1042.71682804 -471.50579004 1052.52759855 -477.4593811 1062.35482788 C-482.50574072 1070.68258244 -487.59917318 1078.97920046 -492.73950195 1087.24926758 C-497.20716968 1094.44909125 -501.60735097 1101.68922858 -505.99780273 1108.9362793 C-512.24848367 1119.25382917 -518.54460441 1129.54173816 -524.87597656 1139.81005859 C-529.16898249 1146.77565815 -533.43728294 1153.75566231 -537.68530273 1160.7487793 C-542.59386519 1168.82928577 -547.53568452 1176.88855541 -552.49780273 1184.9362793 C-558.09691029 1194.0185526 -563.65625616 1203.12378454 -569.18530273 1212.2487793 C-575.37392052 1222.46231324 -581.60895404 1232.6460315 -587.87670898 1242.8112793 C-592.16949733 1249.77645565 -596.4375293 1256.75606787 -600.68530273 1263.7487793 C-605.59386504 1271.82928553 -610.53564824 1279.88857791 -615.49780273 1287.9362793 C-621.52793202 1297.71682804 -627.50579004 1307.52759855 -633.4593811 1317.35482788 C-638.50574072 1325.68258244 -643.59917318 1333.97920046 -648.73950195 1342.24926758 C-653.20716968 1349.44909125 -657.60735097 1356.68922858 -661.99780273 1363.9362793 C-668.24848367 1374.25382917 -674.54460441 1384.54173816 -680.87597656 1394.81005859 C-685.16898249 1401.77565815 -689.43728294 1408.75566231 -693.68530273 1415.7487793 C-698.59386504 1423.82928553 -703.53564824 1431.88857791 -708.49780273 1439.9362793 C-714.52793202 1449.71682804 -720.50579004 1459.52759855 -726.4593811 1469.35482788 C-731.50574072 1477.68258244 -736.59917318 1485.97920046 -741.73950195 1494.24926758 C-746.20716968 1501.44909125 -750.60735097 1508.68922858 -754.99780273 1515.9362793 C-761.24848367 1526.25382917 -767.54460441 1536.54173816 -773.87597656 1546.81005859 C-778.16898249 1553.77565815 -782.43728294 1560.75566231 -786.68530273 1567.7487793 C-791.59386519 1575.82928577 -796.53568452 1583.88855541 -801.49780273 1591.9362793 C-807.09691029 1601.0185526 -812.65625616 1610.12378454 -818.18530273 1619.2487793 C-824.37392052 1629.46231324 -830.60895404 1639.6460315 -836.87670898 1649.8112793 C-841.16949733 1656.77645565 -845.4375293 1663.75606787 -849.68530273 1670.7487793 C-854.59386504 1678.82928553 -859.53564824 1686.88857791 -864.49780273 1694.9362793 C-870.52793202 1704.71682804 -876.50579004 1714.52759855 -882.4593811 1724.35482788 C-887.50574072 1732.68258244 -892.59917318 1740.97920046 -897.73950195 1749.24926758 C-902.20716968 1756.44909125 -906.60735097 1763.68922858 -910.99780273 1770.9362793 C-917.24848367 1781.25382917 -923.54460441 1791.54173816 -929.87597656 1801.81005859 C-934.16898249 1808.77565815 -938.43728294 1815.75566231 -942.68530273 1822.7487793 C-947.59386519 1830.82928577 -952.53568452 1838.88855541 -957.49780273 1846.9362793 C-963.09691029 1856.0185526 -968.65625616 1865.12378454 -974.18530273 1874.2487793 C-980.36812651 1884.45275096 -986.59716534 1894.62703207 -992.85913086 1904.78271484 C-997.8751767 1912.92131161 -1002.85748925 1921.07991143 -1007.81884766 1929.25195312 C-1008.84540195 1930.94221833 -1009.88403868 1932.62522845 -1010.93688965 1934.29924011 C-1012.75037757 1937.2560856 -1012.75037757 1937.2560856 -1014.25215149 1940.54675293 C-1018.80999031 1949.46651377 -1018.80999031 1949.46651377 -1023.78268433 1951.54081726 C-1027.57355972 1952.12141631 -1031.17420647 1952.28616471 -1035.00952148 1952.29174805 C-1036.40189757 1952.32344499 -1037.7942193 1952.3576156 -1039.18647766 1952.39411926 C-1042.09867681 1952.4536896 -1045.00580267 1952.46212948 -1047.91845703 1952.43798828 C-1050.88699514 1952.41902649 -1053.83509594 1952.48108567 -1056.80029297 1952.62255859 C-1080.4340352 1953.73861974 -1080.4340352 1953.73861974 -1087.24862671 1948.14456177 C-1091.49324739 1942.99343779 -1094.07019878 1937.29994311 -1096.46867371 1931.11695862 C-1098.48739679 1926.35785812 -1101.30555264 1922.12968884 -1104.12280273 1917.8112793 C-1104.72278076 1916.84585205 -1105.32275879 1915.8804248 -1105.94091797 1914.88574219 C-1106.64776733 1913.7525354 -1106.64776733 1913.7525354 -1107.36889648 1912.59643555 C-1110.84629447 1907.00388725 -1114.26847173 1901.37847363 -1117.68530273 1895.7487793 C-1121.70781647 1889.12296974 -1125.74914877 1882.51004635 -1129.83740234 1875.92456055 C-1131.45557768 1873.31682614 -1133.0666434 1870.7047947 -1134.67749023 1868.0925293 C-1136.60851267 1864.96622998 -1138.57174359 1861.86495466 -1140.56811523 1858.7800293 C-1141.41976417 1857.43633408 -1142.27133221 1856.09258758 -1143.12280273 1854.7487793 C-1143.51894775 1854.15581055 -1143.91509277 1853.5628418 -1144.32324219 1852.9519043 C-1145.36889648 1851.2800293 -1145.36889648 1851.2800293 -1146.68530273 1848.2487793 C-1145.58353262 1844.73179707 -1143.87139099 1841.67089495 -1141.99780273 1838.51049805 C-1141.46936768 1837.61661377 -1140.94093262 1836.72272949 -1140.39648438 1835.80175781 C-1139.54944946 1834.38334595 -1139.54944946 1834.38334595 -1138.68530273 1832.9362793 C-1138.09934326 1831.95006592 -1137.51338379 1830.96385254 -1136.90966797 1829.94775391 C-1133.19844986 1823.72292549 -1129.41917765 1817.54650569 -1125.55297852 1811.41699219 C-1121.99560785 1805.77190636 -1118.5224931 1800.07765488 -1115.06030273 1794.3737793 C-1109.96437196 1785.980687 -1104.8375738 1777.60740464 -1099.68530273 1769.2487793 C-1094.08251153 1760.15783771 -1088.5119393 1751.04817917 -1082.96777344 1741.92138672 C-1078.62916806 1734.78498338 -1074.25615472 1727.67026953 -1069.87280273 1720.5612793 C-1063.84267345 1710.78073055 -1057.86481543 1700.96996005 -1051.91122437 1691.14273071 C-1046.86486475 1682.81497615 -1041.77143229 1674.51835814 -1036.63110352 1666.24829102 C-1032.16343579 1659.04846734 -1027.7632545 1651.80833001 -1023.37280273 1644.5612793 C-1017.1221218 1634.24372943 -1010.82600106 1623.95582044 -1004.49462891 1613.6875 C-1000.20162298 1606.72190044 -995.93332253 1599.74189629 -991.68530273 1592.7487793 C-986.77674043 1584.66827306 -981.83495723 1576.60898068 -976.87280273 1568.5612793 C-970.84267345 1558.78073055 -964.86481543 1548.96996005 -958.91122437 1539.14273071 C-953.86486475 1530.81497615 -948.77143229 1522.51835814 -943.63110352 1514.24829102 C-939.16343579 1507.04846734 -934.7632545 1499.80833001 -930.37280273 1492.5612793 C-924.1221218 1482.24372943 -917.82600106 1471.95582044 -911.49462891 1461.6875 C-907.20162298 1454.72190044 -902.93332253 1447.74189629 -898.68530273 1440.7487793 C-893.77674043 1432.66827306 -888.83495723 1424.60898068 -883.87280273 1416.5612793 C-877.84267345 1406.78073055 -871.86481543 1396.96996005 -865.91122437 1387.14273071 C-860.86486475 1378.81497615 -855.77143229 1370.51835814 -850.63110352 1362.24829102 C-846.16343579 1355.04846734 -841.7632545 1347.80833001 -837.37280273 1340.5612793 C-831.1221218 1330.24372943 -824.82600106 1319.95582044 -818.49462891 1309.6875 C-814.20162298 1302.72190044 -809.93332253 1295.74189629 -805.68530273 1288.7487793 C-800.77674043 1280.66827306 -795.83495723 1272.60898068 -790.87280273 1264.5612793 C-784.84267345 1254.78073055 -778.86481543 1244.96996005 -772.91122437 1235.14273071 C-767.86486475 1226.81497615 -762.77143229 1218.51835814 -757.63110352 1210.24829102 C-753.16343579 1203.04846734 -748.7632545 1195.80833001 -744.37280273 1188.5612793 C-738.1221218 1178.24372943 -731.82600106 1167.95582044 -725.49462891 1157.6875 C-721.20162298 1150.72190044 -716.93332253 1143.74189629 -712.68530273 1136.7487793 C-707.77674043 1128.66827306 -702.83495723 1120.60898068 -697.87280273 1112.5612793 C-691.84267345 1102.78073055 -685.86481543 1092.96996005 -679.91122437 1083.14273071 C-674.86486475 1074.81497615 -669.77143229 1066.51835814 -664.63110352 1058.24829102 C-660.16343579 1051.04846734 -655.7632545 1043.80833001 -651.37280273 1036.5612793 C-645.1221218 1026.24372943 -638.82600106 1015.95582044 -632.49462891 1005.6875 C-628.20162298 998.72190044 -623.93332253 991.74189629 -619.68530273 984.7487793 C-614.77674043 976.66827306 -609.83495723 968.60898068 -604.87280273 960.5612793 C-598.84267345 950.78073055 -592.86481543 940.96996005 -586.91122437 931.14273071 C-581.86486475 922.81497615 -576.77143229 914.51835814 -571.63110352 906.24829102 C-567.16343579 899.04846734 -562.7632545 891.80833001 -558.37280273 884.5612793 C-552.1221218 874.24372943 -545.82600106 863.95582044 -539.49462891 853.6875 C-535.20162298 846.72190044 -530.93332253 839.74189629 -526.68530273 832.7487793 C-521.77674043 824.66827306 -516.83495723 816.60898068 -511.87280273 808.5612793 C-505.84267345 798.78073055 -499.86481543 788.96996005 -493.91122437 779.14273071 C-488.86486475 770.81497615 -483.77143229 762.51835814 -478.63110352 754.24829102 C-474.16343579 747.04846734 -469.7632545 739.80833001 -465.37280273 732.5612793 C-459.1221218 722.24372943 -452.82600106 711.95582044 -446.49462891 701.6875 C-442.20162298 694.72190044 -437.93332253 687.74189629 -433.68530273 680.7487793 C-428.77674043 672.66827306 -423.83495723 664.60898068 -418.87280273 656.5612793 C-412.84267345 646.78073055 -406.86481543 636.96996005 -400.91122437 627.14273071 C-395.86486475 618.81497615 -390.77143229 610.51835814 -385.63110352 602.24829102 C-381.16343579 595.04846734 -376.7632545 587.80833001 -372.37280273 580.5612793 C-366.1221218 570.24372943 -359.82600106 559.95582044 -353.49462891 549.6875 C-349.20162298 542.72190044 -344.93332253 535.74189629 -340.68530273 528.7487793 C-335.77674043 520.66827306 -330.83495723 512.60898068 -325.87280273 504.5612793 C-319.84267345 494.78073055 -313.86481543 484.96996005 -307.91122437 475.14273071 C-302.86486475 466.81497615 -297.77143229 458.51835814 -292.63110352 450.24829102 C-288.16343579 443.04846734 -283.7632545 435.80833001 -279.37280273 428.5612793 C-273.1221218 418.24372943 -266.82600106 407.95582044 -260.49462891 397.6875 C-256.20162298 390.72190044 -251.93332253 383.74189629 -247.68530273 376.7487793 C-242.77674043 368.66827306 -237.83495723 360.60898068 -232.87280273 352.5612793 C-226.84267345 342.78073055 -220.86481543 332.96996005 -214.91122437 323.14273071 C-209.86486475 314.81497615 -204.77143229 306.51835814 -199.63110352 298.24829102 C-195.16343579 291.04846734 -190.7632545 283.80833001 -186.37280273 276.5612793 C-180.1221218 266.24372943 -173.82600106 255.95582044 -167.49462891 245.6875 C-163.2016229 238.72190031 -158.93333902 231.74188637 -154.68530273 224.7487793 C-149.04089503 215.45736448 -143.35005591 206.19522746 -137.64624023 196.94018555 C-132.72533389 188.95083761 -127.83931336 180.94090397 -122.96777344 172.92138672 C-118.62916793 165.78498316 -114.25612268 158.67028943 -109.87280273 151.5612793 C-104.27369518 142.479006 -98.71434931 133.37377405 -93.18530273 124.2487793 C-86.99668495 114.03524536 -80.76165143 103.85152709 -74.49389648 93.6862793 C-70.20110806 86.72110282 -65.93309266 79.74148081 -61.68530273 72.7487793 C-56.04754809 63.46831626 -50.36420802 54.21660329 -44.66601562 44.97314453 C-39.56493681 36.69296177 -34.49961443 28.39157001 -29.46459961 20.07104492 C-28.44065888 18.38285868 -27.40025577 16.7044862 -26.33947086 15.0392046 C-24.63190662 12.29926005 -24.63190662 12.29926005 -23.46490383 9.37945843 C-18.37868532 -1.27671209 -10.39848888 -0.24856915 0 0 Z " fill="#F05923" transform="translate(2275.685302734375,-1.248779296875)"/>
<path d="M0 0 C1.74525582 0.06368261 3.49044872 0.1291089 5.23558044 0.19610596 C7.0992432 0.20119091 8.96294195 0.19831828 10.82658386 0.18814087 C15.85996628 0.18299809 20.88554783 0.28839463 25.91712356 0.4144721 C31.18443248 0.52740131 36.45194321 0.53759963 41.72027588 0.55892944 C51.68413743 0.61476281 61.64442189 0.7622996 71.60671169 0.94322026 C82.95328117 1.14478338 94.30002639 1.2434712 105.64794195 1.33373809 C128.97967124 1.52162403 152.30823067 1.83799207 175.63719177 2.23956299 C174.69981164 3.97242929 173.7606599 5.70433731 172.82078552 7.43585205 C172.03659241 8.88269379 172.03659241 8.88269379 171.23655701 10.35876465 C168.84790281 14.66124096 166.25497099 18.82392931 163.63719177 22.98956299 C162.4866779 24.83413235 161.33696604 26.67920214 160.18797302 28.52471924 C159.60096619 29.46718506 159.01395935 30.40965088 158.40916443 31.38067627 C155.51821477 36.04491167 152.67150895 40.73580624 149.82469177 45.42706299 C144.79109823 53.71586399 139.72538138 61.98416635 134.63719177 70.23956299 C129.03444016 79.3305291 123.46382849 88.44016287 117.91966248 97.56695557 C113.5810571 104.70335891 109.20804376 111.81807276 104.82469177 118.92706299 C98.79456248 128.70761173 92.81670447 138.51838224 86.8631134 148.34561157 C81.81675379 156.67336613 76.72332133 164.96998415 71.58299255 173.24005127 C67.11532483 180.43987494 62.71514354 187.68001227 58.32469177 194.92706299 C52.07401084 205.24461286 45.77789009 215.53252185 39.44651794 225.80084229 C35.15351202 232.76644185 30.88521157 239.746446 26.63719177 246.73956299 C21.72862947 254.82006922 16.78684627 262.8793616 11.82469177 270.92706299 C5.79456248 280.70761173 -0.18329553 290.51838224 -6.1368866 300.34561157 C-11.18324621 308.67336613 -16.27667867 316.96998415 -21.41700745 325.24005127 C-25.88467517 332.43987494 -30.28485646 339.68001227 -34.67530823 346.92706299 C-40.92598916 357.24461286 -47.22210991 367.53252185 -53.55348206 377.80084229 C-57.84648798 384.76644185 -62.11478843 391.746446 -66.36280823 398.73956299 C-71.27137068 406.82006947 -76.21319001 414.8793391 -81.17530823 422.92706299 C-86.77441578 432.00933629 -92.33376165 441.11456823 -97.86280823 450.23956299 C-104.05142601 460.45309693 -110.28645953 470.6368152 -116.55421448 480.80206299 C-120.8470029 487.76723946 -125.1150183 494.74686147 -129.36280823 501.73956299 C-135.00721593 511.0309778 -140.69805505 520.29311483 -146.40187073 529.54815674 C-151.32277707 537.53750468 -156.2087976 545.54743831 -161.08033752 553.56695557 C-165.41894303 560.70335913 -169.79198828 567.81805286 -174.17530823 574.92706299 C-179.77441578 584.00933629 -185.33376165 593.11456823 -190.86280823 602.23956299 C-197.05142601 612.45309693 -203.28645953 622.6368152 -209.55421448 632.80206299 C-213.84700282 639.76723934 -218.11503479 646.74685156 -222.36280823 653.73956299 C-227.27137053 661.82006922 -232.21315373 669.8793616 -237.17530823 677.92706299 C-243.20543752 687.70761173 -249.18329553 697.51838224 -255.1368866 707.34561157 C-260.18324621 715.67336613 -265.27667867 723.96998415 -270.41700745 732.24005127 C-274.88467517 739.43987494 -279.28485646 746.68001227 -283.67530823 753.92706299 C-289.92598916 764.24461286 -296.22210991 774.53252185 -302.55348206 784.80084229 C-306.84648798 791.76644185 -311.11478843 798.746446 -315.36280823 805.73956299 C-320.27137053 813.82006922 -325.21315373 821.8793616 -330.17530823 829.92706299 C-336.20543752 839.70761173 -342.18329553 849.51838224 -348.1368866 859.34561157 C-353.18324621 867.67336613 -358.27667867 875.96998415 -363.41700745 884.24005127 C-367.88467517 891.43987494 -372.28485646 898.68001227 -376.67530823 905.92706299 C-382.92598916 916.24461286 -389.22210991 926.53252185 -395.55348206 936.80084229 C-399.84648798 943.76644185 -404.11478843 950.746446 -408.36280823 957.73956299 C-413.27137053 965.82006922 -418.21315373 973.8793616 -423.17530823 981.92706299 C-429.20543752 991.70761173 -435.18329553 1001.51838224 -441.1368866 1011.34561157 C-446.18324621 1019.67336613 -451.27667867 1027.96998415 -456.41700745 1036.24005127 C-460.88467517 1043.43987494 -465.28485646 1050.68001227 -469.67530823 1057.92706299 C-475.92598916 1068.24461286 -482.22210991 1078.53252185 -488.55348206 1088.80084229 C-492.84648798 1095.76644185 -497.11478843 1102.746446 -501.36280823 1109.73956299 C-506.27137068 1117.82006947 -511.21319001 1125.8793391 -516.17530823 1133.92706299 C-521.77441578 1143.00933629 -527.33376165 1152.11456823 -532.86280823 1161.23956299 C-539.05142601 1171.45309693 -545.28645953 1181.6368152 -551.55421448 1191.80206299 C-555.8470029 1198.76723946 -560.1150183 1205.74686147 -564.36280823 1212.73956299 C-570.00721593 1222.0309778 -575.69805505 1231.29311483 -581.40187073 1240.54815674 C-586.32277707 1248.53750468 -591.2087976 1256.54743831 -596.08033752 1264.56695557 C-600.41894303 1271.70335913 -604.79198828 1278.81805286 -609.17530823 1285.92706299 C-614.77441578 1295.00933629 -620.33376165 1304.11456823 -625.86280823 1313.23956299 C-632.05142601 1323.45309693 -638.28645953 1333.6368152 -644.55421448 1343.80206299 C-648.84700282 1350.76723934 -653.11503479 1357.74685156 -657.36280823 1364.73956299 C-662.27137053 1372.82006922 -667.21315373 1380.8793616 -672.17530823 1388.92706299 C-678.20543752 1398.70761173 -684.18329553 1408.51838224 -690.1368866 1418.34561157 C-695.18324621 1426.67336613 -700.27667867 1434.96998415 -705.41700745 1443.24005127 C-709.88467517 1450.43987494 -714.28485646 1457.68001227 -718.67530823 1464.92706299 C-724.92598916 1475.24461286 -731.22210991 1485.53252185 -737.55348206 1495.80084229 C-741.84648798 1502.76644185 -746.11478843 1509.746446 -750.36280823 1516.73956299 C-755.27137053 1524.82006922 -760.21315373 1532.8793616 -765.17530823 1540.92706299 C-771.20543752 1550.70761173 -777.18329553 1560.51838224 -783.1368866 1570.34561157 C-788.18324621 1578.67336613 -793.27667867 1586.96998415 -798.41700745 1595.24005127 C-802.88467517 1602.43987494 -807.28485646 1609.68001227 -811.67530823 1616.92706299 C-817.92156218 1627.23730556 -824.21256878 1637.51833679 -830.54029846 1647.77886963 C-834.36425197 1653.98253059 -838.16987173 1660.19674125 -841.95265198 1666.42559814 C-843.68383294 1669.2757016 -845.41933423 1672.12313184 -847.15577698 1674.97003174 C-849.23575541 1678.38059834 -851.29922397 1681.80030396 -853.35108948 1685.22784424 C-854.25042427 1686.71116266 -855.15013784 1688.19425152 -856.05030823 1689.67706299 C-856.44846741 1690.35204834 -856.84662659 1691.02703369 -857.2568512 1691.72247314 C-858.37452698 1693.54815674 -858.37452698 1693.54815674 -860.36280823 1696.23956299 C-861.35280823 1696.23956299 -862.34280823 1696.23956299 -863.36280823 1696.23956299 C-864.69044495 1694.55328369 -864.69044495 1694.55328369 -866.04249573 1692.16534424 C-866.55223938 1691.28112793 -867.06198303 1690.39691162 -867.58717346 1689.48590088 C-868.13188293 1688.51773437 -868.67659241 1687.54956787 -869.23780823 1686.55206299 C-870.41163341 1684.51447654 -871.58746444 1682.47804451 -872.76515198 1680.44268799 C-873.36440491 1679.40305908 -873.96365784 1678.36343018 -874.58106995 1677.29229736 C-877.2365786 1672.74249191 -880.00962165 1668.26981605 -882.80030823 1663.80206299 C-887.36467915 1656.47381158 -891.88331777 1649.12002145 -896.36280823 1641.73956299 C-900.76554955 1634.4884163 -905.19830494 1627.25758818 -909.67530823 1620.05206299 C-915.16411275 1611.21576534 -920.56856133 1602.3296377 -925.95744324 1593.43225098 C-930.71904364 1585.57200476 -935.51495685 1577.73451824 -940.36280823 1569.92706299 C-941.39669787 1568.25390783 -942.43055334 1566.58073154 -943.46437073 1564.90753174 C-945.3534461 1561.85367339 -947.26655722 1558.81707901 -949.19874573 1555.79034424 C-950.04540279 1554.44027373 -950.891776 1553.09002515 -951.73780823 1551.73956299 C-952.31981995 1550.84950562 -952.31981995 1550.84950562 -952.91358948 1549.94146729 C-954.46924065 1547.43077838 -955.42400172 1545.82914218 -955.11354065 1542.83795166 C-954.31860594 1540.08657275 -953.27434828 1538.06387239 -951.76515198 1535.63409424 C-951.21923401 1534.74657471 -950.67331604 1533.85905518 -950.1108551 1532.94464111 C-949.2146344 1531.51281494 -949.2146344 1531.51281494 -948.30030823 1530.05206299 C-947.67833557 1529.04466064 -947.05636292 1528.0372583 -946.4155426 1526.99932861 C-945.08576837 1524.84654983 -943.75282443 1522.69572632 -942.41700745 1520.54669189 C-939.72114804 1516.20653126 -937.0449662 1511.85440432 -934.36891174 1507.50201416 C-933.02272955 1505.31276837 -931.67554854 1503.12413647 -930.32740784 1500.93609619 C-925.40451385 1492.94550938 -920.51790646 1484.93347807 -915.64527893 1476.91217041 C-911.30667342 1469.77576685 -906.93362817 1462.66107312 -902.55030823 1455.55206299 C-896.95120067 1446.46978969 -891.3918548 1437.36455774 -885.86280823 1428.23956299 C-879.67419044 1418.02602905 -873.43915693 1407.84231078 -867.17140198 1397.67706299 C-862.87861355 1390.71188651 -858.61059815 1383.7322645 -854.36280823 1376.73956299 C-848.71840053 1367.44814817 -843.0275614 1358.18601115 -837.32374573 1348.93096924 C-832.40283939 1340.9416213 -827.51681886 1332.93168766 -822.64527893 1324.91217041 C-818.30667342 1317.77576685 -813.93362817 1310.66107312 -809.55030823 1303.55206299 C-803.95120067 1294.46978969 -798.3918548 1285.36455774 -792.86280823 1276.23956299 C-786.67419044 1266.02602905 -780.43915693 1255.84231078 -774.17140198 1245.67706299 C-769.87861355 1238.71188651 -765.61059815 1231.7322645 -761.36280823 1224.73956299 C-755.71840053 1215.44814817 -750.0275614 1206.18601115 -744.32374573 1196.93096924 C-739.40283939 1188.9416213 -734.51681886 1180.93168766 -729.64527893 1172.91217041 C-725.30667342 1165.77576685 -720.93362817 1158.66107312 -716.55030823 1151.55206299 C-710.95120067 1142.46978969 -705.3918548 1133.36455774 -699.86280823 1124.23956299 C-693.67419044 1114.02602905 -687.43915693 1103.84231078 -681.17140198 1093.67706299 C-676.87861363 1086.71188664 -672.61058167 1079.73227442 -668.36280823 1072.73956299 C-663.45424592 1064.65905676 -658.51246272 1056.59976437 -653.55030823 1048.55206299 C-647.52017894 1038.77151424 -641.54232092 1028.96074374 -635.58872986 1019.1335144 C-630.54237024 1010.80575984 -625.44893778 1002.50914183 -620.30860901 994.23907471 C-615.84094128 987.03925103 -611.44075999 979.7991137 -607.05030823 972.55206299 C-600.79962729 962.23451312 -594.50350655 951.94660413 -588.1721344 941.67828369 C-583.87912848 934.71268413 -579.61082803 927.73267998 -575.36280823 920.73956299 C-570.45424592 912.65905676 -565.51246272 904.59976437 -560.55030823 896.55206299 C-554.52017894 886.77151424 -548.54232092 876.96074374 -542.58872986 867.1335144 C-537.54237024 858.80575984 -532.44893778 850.50914183 -527.30860901 842.23907471 C-522.84094128 835.03925103 -518.44075999 827.7991137 -514.05030823 820.55206299 C-507.79962729 810.23451312 -501.50350655 799.94660413 -495.1721344 789.67828369 C-490.87912848 782.71268413 -486.61082803 775.73267998 -482.36280823 768.73956299 C-477.45424592 760.65905676 -472.51246272 752.59976437 -467.55030823 744.55206299 C-461.52017894 734.77151424 -455.54232092 724.96074374 -449.58872986 715.1335144 C-444.54237024 706.80575984 -439.44893778 698.50914183 -434.30860901 690.23907471 C-429.84094128 683.03925103 -425.44075999 675.7991137 -421.05030823 668.55206299 C-414.79962729 658.23451312 -408.50350655 647.94660413 -402.1721344 637.67828369 C-397.87912848 630.71268413 -393.61082803 623.73267998 -389.36280823 616.73956299 C-384.45424592 608.65905676 -379.51246272 600.59976437 -374.55030823 592.55206299 C-368.52017894 582.77151424 -362.54232092 572.96074374 -356.58872986 563.1335144 C-351.54237024 554.80575984 -346.44893778 546.50914183 -341.30860901 538.23907471 C-336.84094128 531.03925103 -332.44075999 523.7991137 -328.05030823 516.55206299 C-321.79962729 506.23451312 -315.50350655 495.94660413 -309.1721344 485.67828369 C-304.87912848 478.71268413 -300.61082803 471.73267998 -296.36280823 464.73956299 C-291.45424592 456.65905676 -286.51246272 448.59976437 -281.55030823 440.55206299 C-275.52017894 430.77151424 -269.54232092 420.96074374 -263.58872986 411.1335144 C-258.54237024 402.80575984 -253.44893778 394.50914183 -248.30860901 386.23907471 C-243.84094128 379.03925103 -239.44075999 371.7991137 -235.05030823 364.55206299 C-228.79962729 354.23451312 -222.50350655 343.94660413 -216.1721344 333.67828369 C-211.87912848 326.71268413 -207.61082803 319.73267998 -203.36280823 312.73956299 C-198.45424592 304.65905676 -193.51246272 296.59976437 -188.55030823 288.55206299 C-182.52017894 278.77151424 -176.54232092 268.96074374 -170.58872986 259.1335144 C-165.54237024 250.80575984 -160.44893778 242.50914183 -155.30860901 234.23907471 C-150.84094128 227.03925103 -146.44075999 219.7991137 -142.05030823 212.55206299 C-135.79962729 202.23451312 -129.50350655 191.94660413 -123.1721344 181.67828369 C-118.87912848 174.71268413 -114.61082803 167.73267998 -110.36280823 160.73956299 C-105.45424592 152.65905676 -100.51246272 144.59976437 -95.55030823 136.55206299 C-89.52017894 126.77151424 -83.54232092 116.96074374 -77.58872986 107.1335144 C-72.54237024 98.80575984 -67.44893778 90.50914183 -62.30860901 82.23907471 C-57.8409411 75.03925073 -53.44078377 67.79909954 -49.05030823 60.55206299 C-42.7927812 50.22349279 -36.49543086 39.92076555 -30.15455627 29.64312744 C-29.55554504 28.67206055 -28.95653381 27.70099365 -28.33937073 26.70050049 C-27.44089778 25.29736005 -27.44089778 25.29736005 -26.52427387 23.86587334 C-24.89068503 21.23260808 -23.53735481 18.54776363 -22.22207165 15.74295235 C-16.76666353 4.70316536 -12.57505089 -0.03984998 0 0 Z " fill="#F05923" transform="translate(1898.362808227539,-2.23956298828125)"/>
<path d="M0 0 C69.3 0 138.6 0 210 0 C208.44999113 3.87502217 206.96971276 6.87727389 204.796875 10.3671875 C204.15363281 11.40552734 203.51039063 12.44386719 202.84765625 13.51367188 C202.15542969 14.62291016 201.46320313 15.73214844 200.75 16.875 C199.65569261 18.63860023 198.56285936 20.40310831 197.47009277 22.16766357 C196.72712614 23.36719663 195.98371489 24.5664544 195.23986816 25.76544189 C191.79308984 31.32334824 188.39204299 36.90853667 185 42.5 C179.35619918 51.79178071 173.66475044 61.05355627 167.9609375 70.30859375 C163.04003116 78.29794169 158.15401063 86.30787533 153.2824707 94.32739258 C148.2840504 102.54909985 143.23819697 110.74114842 138.18725586 118.93066406 C133.47786179 126.5752603 128.81344018 134.24592179 124.16516113 141.92776489 C118.24671616 151.70846532 112.29670032 161.45628328 106 171 C102.39387049 169.79795683 102.14926589 169.03688468 100.3203125 165.828125 C99.81056885 164.94713135 99.3008252 164.0661377 98.77563477 163.15844727 C98.23092529 162.19865967 97.68621582 161.23887207 97.125 160.25 C95.95112213 158.22155355 94.7752923 156.19423566 93.59765625 154.16796875 C92.99840332 153.13462402 92.39915039 152.1012793 91.78173828 151.03662109 C89.11827896 146.49728059 86.34879836 142.0271575 83.5625 137.5625 C79.06317561 130.33688719 74.60472019 123.08861732 70.1875 115.8125 C65.1537416 107.5237984 60.08819034 99.25539784 55 91 C49.39948892 81.91266935 43.83120504 72.80661835 38.2890625 63.68359375 C33.88502158 56.43984318 29.44750635 49.21713106 25 42 C19.71818419 33.423383 14.4402733 24.84444297 9.1875 16.25 C8.60677734 15.30382813 8.02605469 14.35765625 7.42773438 13.3828125 C6.88826172 12.49851562 6.34878906 11.61421875 5.79296875 10.703125 C5.3239917 9.93645508 4.85501465 9.16978516 4.37182617 8.37988281 C2.79842962 5.65031 1.40898151 2.81796302 0 0 Z " fill="#3B23A8" transform="translate(1118,0)"/>
</svg>
